<?xml version="1.0"?>
<svg xmlns="http://www.w3.org/2000/svg" xmlns:xlink="http://www.w3.org/1999/xlink" xmlns:svgjs="http://svgjs.com/svgjs" version="1.1" width="512" height="512" x="0" y="0" viewBox="0 0 512 512" style="enable-background:new 0 0 512 512" xml:space="preserve" class=""><g><path xmlns="http://www.w3.org/2000/svg" d="m512 256c0 6.51-.24 12.95-.72 19.34-.08 1-.16 2-.25 3-2 23.24-7.12 45.6-14.94 66.66-2.85 7.71-6.06 15.24-9.63 22.57-41.45 85.49-129.07 144.43-230.46 144.43-2.01 0-4.01-.02-6-.08-3.69-.08-7.35-.24-11-.48-16.57-1.09-32.72-3.75-48.28-7.85-.41-.11-.81-.22-1.22-.33-109.14-29.26-189.5-128.88-189.5-247.26 0-141.38 114.62-256 256-256 130.01 0 237.4 96.93 253.82 222.47.09.68.18 1.37.25 2.05 1.02 8.18 1.64 16.48 1.85 24.88.03 1.47.06 2.94.07 4.41.01.73.01 1.46.01 2.19z" fill="#ff8cc1" data-original="#ffc43a" style="" class=""/><path xmlns="http://www.w3.org/2000/svg" d="m512 256c0 6.51-.24 12.95-.72 19.34-.08 1-.16 2-.25 3-2 23.24-7.12 45.6-14.94 66.66-2.85 7.71-6.06 15.24-9.63 22.57-41.45 85.49-129.07 144.43-230.46 144.43-2.01 0-4.01-.02-6-.08-3.69-.08-7.35-.24-11-.48-16.57-1.09-32.72-3.75-48.28-7.85-.41-.11-.81-.22-1.22-.33l-118.5-118.24 174.4-247.35 12.85 12.85 152.75-25.5 99.07 99.5c1.02 8.18 1.64 16.48 1.85 24.88.03 1.47.06 2.94.07 4.41.01.73.01 1.46.01 2.19z" fill="#ff71b3" data-original="#fda632" style="" class=""/><path xmlns="http://www.w3.org/2000/svg" d="m441 158.373h-370v226.668h145v.57l8.652 21.373h62.696l8.652-21.373v-.57h145z" fill="#f1444f" data-original="#f1444f" style="" class=""/><path xmlns="http://www.w3.org/2000/svg" d="m256 158.373v248.611h31.348l8.652-21.373v-.57h145v-226.668z" fill="#db2835" data-original="#db2835" style="" class=""/><path xmlns="http://www.w3.org/2000/svg" d="m256 158.366c-3.325-19.245-20.589-33.35-40.817-33.35h-114.183v230h310v-230h-114.183c-20.228 0-37.492 14.106-40.817 33.35z" fill="#fff3dc" data-original="#fff3dc" style="" class=""/><path xmlns="http://www.w3.org/2000/svg" d="m296.817 125.016c-20.228 0-37.491 14.105-40.817 33.35v196.65h155v-230z" fill="#ffe7bb" data-original="#ffe7bb" style="" class=""/><path xmlns="http://www.w3.org/2000/svg" d="m286 295.016c-16.569 0-30 13.431-30 30 0-16.568-13.431-30-30-30h-125v30 30h310v-30-30z" fill="#ffd27d" data-original="#ffd27d" style="" class=""/><path xmlns="http://www.w3.org/2000/svg" d="m286 295.016c-16.569 0-30 13.431-30 30v30h155v-30-30z" fill="#ffc466" data-original="#ffc466" style="" class=""/><path xmlns="http://www.w3.org/2000/svg" d="m286 325.016c-16.569 0-30 13.431-30 30 0-16.568-13.431-30-30-30h-125v30h155 155v-30z" fill="#ffe7bb" data-original="#ffe7bb" style="" class=""/><path xmlns="http://www.w3.org/2000/svg" d="m286 325.016c-16.569 0-30 13.431-30 30h155v-30z" fill="#ffd27d" data-original="#ffd27d" style="" class=""/><g xmlns="http://www.w3.org/2000/svg" fill="#3477a6"><path d="m131 159.862h95v20h-95z" fill="#3477a6" data-original="#3477a6" style="" class=""/><path d="m131 200.016h95v20h-95z" fill="#3477a6" data-original="#3477a6" style="" class=""/><path d="m131 240.17h95v20h-95z" fill="#3477a6" data-original="#3477a6" style="" class=""/></g><path xmlns="http://www.w3.org/2000/svg" d="m286 159.862h95v20h-95z" fill="#185f8d" data-original="#185f8d" style="" class=""/><path xmlns="http://www.w3.org/2000/svg" d="m286 200.016h95v20h-95z" fill="#185f8d" data-original="#185f8d" style="" class=""/><path xmlns="http://www.w3.org/2000/svg" d="m286 240.17h95v20h-95z" fill="#185f8d" data-original="#185f8d" style="" class=""/><path xmlns="http://www.w3.org/2000/svg" d="m356 406.984-22.5-16.21-22.5 16.21v-81.968h45z" fill="#1a93cb" data-original="#09a1e8" style="" class=""/></g></svg>
